<svg width="55" height="54" viewBox="0 0 55 54" fill="none" xmlns="http://www.w3.org/2000/svg">
<path d="M25.562 11.5538C25.562 8.2156 29.4554 6.39167 32.02 8.52844L39.5151 14.7745C41.5368 16.4595 41.3681 19.6154 39.1782 21.0753L30.2915 27.0001L39.1782 32.924C41.3682 34.3839 41.5371 37.5407 39.5151 39.2257L32.02 45.4708C29.4554 47.6077 25.562 45.7837 25.562 42.4454V30.1525L14.686 37.4034C13.9106 37.9204 12.8622 37.7111 12.3452 36.9357C11.8284 36.1602 12.0386 35.1127 12.814 34.5958L24.2075 27.0001L12.814 19.4034C12.0385 18.8865 11.8283 17.839 12.3452 17.0636C12.8622 16.2881 13.9106 16.0789 14.686 16.5958L25.562 23.8468V11.5538ZM28.937 42.4454C28.937 42.9223 29.4935 43.1834 29.8599 42.8781L37.354 36.6329C37.6428 36.3922 37.619 35.9411 37.3062 35.7325L28.937 30.1525V42.4454ZM15.9995 27.0001L12.8179 30.1818L9.63623 27.0001L12.8179 23.8175L15.9995 27.0001ZM44.8638 27.0001L41.6812 30.1818L38.4995 27.0001L41.6812 23.8175L44.8638 27.0001ZM29.8599 11.1212C29.4935 10.8159 28.937 11.0769 28.937 11.5538V23.8468L37.3062 18.2667C37.6189 18.0581 37.6428 17.608 37.354 17.3673L29.8599 11.1212Z" fill="#FED7AA"/>
</svg>
