<svg width="37" height="36" viewBox="0 0 37 36" fill="none" xmlns="http://www.w3.org/2000/svg">
<path d="M8.63684 24.5299L11.6368 27.5299L11.6896 27.5788L8.41223 30.8571C7.55546 31.7139 6.16647 31.7139 5.30969 30.8571C4.45292 30.0003 4.45292 28.6113 5.30969 27.7546L8.58704 24.4762L8.63684 24.5299ZM24.1759 5.78483C25.8895 4.07127 28.6684 4.07128 30.382 5.78483C32.0955 7.49838 32.0955 10.2773 30.382 11.9909L20.9064 21.4655C20.4589 21.9129 19.8785 22.204 19.2521 22.2936L17.5626 22.5348C16.9361 22.6243 16.3549 22.9144 15.9073 23.362L12.7462 26.5221L12.6974 26.4694L9.69739 23.4694L9.64368 23.4196L12.8048 20.2594C13.2524 19.8119 13.5424 19.2307 13.632 18.6042L13.8732 16.9157C13.9627 16.2891 14.2537 15.708 14.7013 15.2604L24.1759 5.78483Z" fill="#FED7AA"/>
</svg>
