<svg width="37" height="36" viewBox="0 0 37 36" fill="none" xmlns="http://www.w3.org/2000/svg">
<path fill-rule="evenodd" clip-rule="evenodd" d="M24.125 30H27.5C30.8137 30 33.5 27.3137 33.5 24V21C33.5 12.7157 26.7843 6 18.5 6C10.2157 6 3.5 12.7157 3.5 21V24C3.5 27.3137 6.18629 30 9.5 30H12.875C12.875 27.1166 15.0445 24.74 17.8401 24.4133L22.0353 17.4214C22.355 16.8886 23.046 16.7158 23.5788 17.0355C24.1116 17.3552 24.2843 18.0462 23.9647 18.579L20.3088 24.6721C22.528 25.4253 24.125 27.5262 24.125 30ZM15.125 30C15.125 28.1443 16.6226 26.6384 18.4752 26.6251C18.4912 26.6254 18.5072 26.6254 18.5232 26.6251C20.3765 26.6376 21.875 28.1438 21.875 30H15.125ZM11.2958 15.6112C12.7133 13.4206 14.8399 11.625 18.5 11.625C22.1601 11.625 24.2867 13.4206 25.7042 15.6112C26.0418 16.1328 26.7383 16.282 27.2599 15.9445C27.7815 15.6069 27.9307 14.9104 27.5932 14.3888C25.8728 11.7302 23.1084 9.375 18.5 9.375C13.8916 9.375 11.1272 11.7302 9.40681 14.3888C9.06925 14.9104 9.21848 15.6069 9.74011 15.9445C10.2617 16.282 10.9582 16.1328 11.2958 15.6112Z" fill="#C7D2FE"/>
</svg>
