<svg width="21" height="20" viewBox="0 0 21 20" fill="none" xmlns="http://www.w3.org/2000/svg">
<rect x="8" y="5" width="5" height="10" fill="white"/>
<circle cx="10.5" cy="9.5" r="5.5" fill="white"/>
<path d="M10.6617 13.5095C10.8275 13.5095 10.968 13.4534 11.0831 13.3413C11.1982 13.2291 11.2558 13.09 11.2558 12.9242C11.2558 12.7583 11.1997 12.6179 11.0875 12.5028C10.9753 12.3876 10.8363 12.3301 10.6705 12.3301C10.5046 12.3301 10.3641 12.3862 10.249 12.4984C10.1339 12.6105 10.0763 12.7496 10.0763 12.9154C10.0763 13.0813 10.1324 13.2217 10.2446 13.3369C10.3568 13.452 10.4958 13.5095 10.6617 13.5095ZM10.1244 11.1923H11.2077V6.16021H10.1244V11.1923ZM7.94653 16.5833L4.08276 12.7024V7.2804L7.94276 3.41663H13.3856L17.2494 7.27663V12.7195L13.3686 16.5833H7.94653Z" fill="#F04438"/>
</svg>
