<svg width="21" height="20" viewBox="0 0 21 20" fill="none" xmlns="http://www.w3.org/2000/svg">
<ellipse cx="10" cy="11" rx="3" ry="5" fill="white"/>
<path d="M1.88721 16.5833L10.166 2.83337L18.4448 16.5833H1.88721ZM10.1616 14.3397C10.3275 14.3397 10.4679 14.2836 10.5831 14.1714C10.6982 14.0592 10.7557 13.9202 10.7557 13.7544C10.7557 13.5885 10.6996 13.448 10.5874 13.3329C10.4753 13.2178 10.3362 13.1602 10.1704 13.1602C10.0045 13.1602 9.86405 13.2163 9.74894 13.3285C9.63382 13.4407 9.57627 13.5797 9.57627 13.7456C9.57627 13.9114 9.63237 14.0519 9.74456 14.167C9.85674 14.2822 9.99576 14.3397 10.1616 14.3397ZM9.62435 12.1602H10.7076V8.16025H9.62435V12.1602Z" fill="#FA9E1E"/>
</svg>
