<svg width="37" height="36" viewBox="0 0 37 36" fill="none" xmlns="http://www.w3.org/2000/svg">
<path d="M20.8969 23.1244C21.1055 23.4374 21.4573 23.6254 21.8334 23.6254C22.2093 23.6254 22.5602 23.4371 22.7689 23.1244L25.4349 19.1254H31.684C31.6096 19.2119 31.5346 19.2983 31.4564 19.3823L21.1283 30.4789C19.8608 31.8404 17.806 31.8404 16.5385 30.4789L6.21033 19.3823C6.13215 19.2983 6.05711 19.2119 5.98279 19.1254H12.8334C13.2093 19.1254 13.5602 18.9371 13.7689 18.6244L15.8334 15.5278L20.8969 23.1244ZM19.9808 7.05316C23.1497 3.64878 28.2875 3.64887 31.4564 7.05316C33.9287 9.70927 34.4726 13.6532 33.0873 16.8754H24.8334C24.4572 16.8754 24.1055 17.0634 23.8969 17.3764L21.8334 20.4721L16.7689 12.8764C16.5603 12.5634 16.2095 12.3754 15.8334 12.3754C15.4572 12.3754 15.1055 12.5634 14.8969 12.8764L12.2308 16.8754H4.57947C3.19418 13.6532 3.73804 9.70928 6.21033 7.05316C9.37927 3.6489 14.5171 3.64875 17.6859 7.05316L18.8334 8.28656L19.9808 7.05316Z" fill="#FECACA"/>
</svg>
