<svg width="20" height="20" viewBox="0 0 20 20" fill="none" xmlns="http://www.w3.org/2000/svg">
<circle cx="10.5" cy="10.5" r="5.5" fill="white"/>
<path d="M8.92154 12.7115L13.6074 8.04642L12.8334 7.2724L8.92154 11.1634L7.15071 9.41342L6.37669 10.1874L8.92154 12.7115ZM10.0015 17.5833C8.96207 17.5833 7.98148 17.3859 7.05971 16.9912C6.13792 16.5964 5.3311 16.0533 4.63925 15.3618C3.94739 14.6703 3.40401 13.8638 3.0091 12.9424C2.6142 12.0211 2.41675 11.0407 2.41675 10.0013C2.41675 8.94806 2.61411 7.964 3.00883 7.04917C3.40355 6.13432 3.94668 5.33097 4.63821 4.63913C5.32975 3.94727 6.1362 3.40388 7.05756 3.00898C7.97891 2.61408 8.95928 2.41663 9.99866 2.41663C11.0519 2.41663 12.036 2.61399 12.9508 3.00871C13.8657 3.40343 14.669 3.94656 15.3609 4.63808C16.0527 5.32963 16.5961 6.13261 16.991 7.04702C17.3859 7.96143 17.5834 8.94527 17.5834 9.99854C17.5834 11.0379 17.386 12.0185 16.9913 12.9403C16.5966 13.8621 16.0534 14.6689 15.3619 15.3608C14.6704 16.0526 13.8674 16.596 12.953 16.9909C12.0386 17.3858 11.0547 17.5833 10.0015 17.5833Z" fill="#00BC70"/>
</svg>
