<svg width="20" height="20" viewBox="0 0 20 20" fill="none" xmlns="http://www.w3.org/2000/svg">
<circle cx="10.5" cy="10.5" r="5.5" fill="white"/>
<path d="M9.45842 13.7916H10.5417V8.99994H9.45842V13.7916ZM9.99566 7.74033C10.1615 7.74033 10.302 7.68424 10.4171 7.57206C10.5322 7.45987 10.5898 7.32085 10.5898 7.155C10.5898 6.98915 10.5337 6.84867 10.4215 6.73354C10.3093 6.61843 10.1703 6.56088 10.0045 6.56088C9.8386 6.56088 9.69811 6.61697 9.583 6.72917C9.46789 6.84136 9.41033 6.98038 9.41033 7.14623C9.41033 7.31208 9.46643 7.45256 9.57862 7.56767C9.6908 7.68278 9.82982 7.74033 9.99566 7.74033ZM10.0072 17.5833C8.96398 17.5833 7.98148 17.3859 7.05971 16.9912C6.13792 16.5964 5.3311 16.0533 4.63925 15.3618C3.94739 14.6703 3.40401 13.8641 3.0091 12.9433C2.6142 12.0225 2.41675 11.0387 2.41675 9.99179C2.41675 8.94488 2.61411 7.964 3.00883 7.04917C3.40355 6.13432 3.94668 5.33097 4.63821 4.63913C5.32975 3.94727 6.13591 3.40388 7.05669 3.00898C7.97746 2.61408 8.9613 2.41663 10.0082 2.41663C11.0551 2.41663 12.036 2.61399 12.9508 3.00871C13.8657 3.40343 14.669 3.94656 15.3609 4.63808C16.0527 5.32963 16.5961 6.13416 16.991 7.05169C17.3859 7.96922 17.5834 8.94958 17.5834 9.99279C17.5834 11.036 17.386 12.0185 16.9913 12.9403C16.5966 13.8621 16.0534 14.6689 15.3619 15.3608C14.6704 16.0526 13.8658 16.596 12.9483 16.9909C12.0308 17.3858 11.0504 17.5833 10.0072 17.5833Z" fill="#4D73FF"/>
</svg>
